<?xml version="1.0" encoding="UTF-8"?>
<svg id="Layer_2" data-name="Layer 2" xmlns="http://www.w3.org/2000/svg" xmlns:xlink="http://www.w3.org/1999/xlink" viewBox="0 0 460.59 349.87">
  <defs>
    <style>
      .cls-1 {
        fill: none;
      }

      .cls-2 {
        fill: url(#linear-gradient);
      }

      .cls-3 {
        clip-path: url(#clippath);
      }
    </style>
    <clipPath id="clippath">
      <path class="cls-1" d="M43.47,336.39h4.34v-23.16h-4.34v23.16ZM86.77,336.44h4.34v-23.46h-4.34v23.46ZM169.87,312.97l-.05,13.13c0,1.44-.13,2.74-.39,3.87-.29,1.05-.68,1.87-1.2,2.49-.49.59-1.15,1.04-1.96,1.3-.49.18-1.15.27-1.97.32-.86-.05-1.52-.14-2.02-.32-.8-.27-1.46-.71-1.95-1.3-.51-.62-.9-1.44-1.2-2.49-.27-1.13-.39-2.39-.39-3.87l-.06-13.13h-4.05l-.05,13.33.06.72c.23,2.63.39,4.71,1.75,6.29.92,1.04,2.09,1.83,3.47,2.35,1.14.43,2.47.7,4.1.75h.14v.04h.01c.11-.01.25-.01.35,0h.01v-.04h.15c1.63-.05,2.96-.32,4.11-.75.2-.08.38-.18.56-.28.11-.06.23-.13.33-.18l.23-.13v4.41c-.01,1.45-.14,2.76-.4,3.87-.29,1.06-.68,1.88-1.2,2.48-.49.61-1.15,1.06-1.96,1.34-.66.2-1.46.32-2.4.33l.22,2.35c1.73-.03,3.3-.29,4.64-.8,1.38-.52,2.53-1.32,3.44-2.37,1.38-1.57,1.53-3.66,1.76-6.29l.06-.73-.03-13.1.03-.3-.05-13.31h-4.06ZM314.09,312.97v21.12h-8.11c-3.13,0-5.66-2.53-5.66-5.65v-15.47h-4.24l-.05,12.26c0,4.36,1.4,6.58,2.63,8.01.92,1.04,2.08,1.83,3.47,2.37,1.16.44,2.53.7,4.06.77h0s12.23.01,12.23.01v-23.41h-4.33ZM334.17,313c-1.51.06-2.86.3-4.01.76-1.37.52-2.52,1.3-3.43,2.34-1.28,1.51-2.59,3.44-2.59,6.43v2.88c0,3.35.78,5.81,2.59,7.91.91,1.02,2.06,1.82,3.43,2.33,1.15.44,2.51.7,4.01.75h.16v.04h10.18v-2.25h-9.86c-3.09,0-5.61-2.5-5.61-5.59,0,0-.16-2.62-.16-4.05s.16-3.69.16-3.69c0-3.1,2.52-5.62,5.61-5.62h9.86v-2.25l-10.34.03ZM395.53,336.44h4.34v-23.46h-4.34v23.46ZM410.79,327.44c-.3-2.88-.48-8.07,1.76-10.49,1.05-1.11,2.53-1.76,4.05-1.76h1.76c4.52,0,5.54,4.53,5.8,6.49.19,1.52.43,4.45-.08,7.05-.25,1.3-.66,2.38-1.23,3.16-1.04,1.44-2.72,2.29-4.48,2.29h-1.77c-4.59,0-5.59-4.71-5.81-6.74M416.27,312.97l-.13.03c-1.49.05-2.85.32-3.97.75-1.35.51-2.49,1.28-3.39,2.3-1.18,1.4-2.57,3.55-2.57,7.8v1.68c0,3.31.8,5.73,2.57,7.8.9,1.01,2.04,1.8,3.39,2.3,1.13.44,2.48.7,3.97.75h2.68c1.49-.05,2.82-.3,3.97-.75,1.33-.51,2.48-1.29,3.38-2.3,1.77-2.07,2.56-4.49,2.56-7.8v-1.68c0-3.31-.78-5.73-2.56-7.8-.9-1.02-2.05-1.8-3.38-2.3-1.15-.43-2.48-.7-3.99-.75l-.15-.03h-2.39ZM55.76,312.96v23.46h4.33v-21.16h8.1c3.13,0,5.67,2.54,5.67,5.65v15.51h4.42l.04-12.29c0-3.42-.81-5.88-2.63-8.02-.91-1.02-2.06-1.82-3.44-2.35-1.19-.43-2.56-.71-4.08-.76h-.15v-.04h-12.25ZM147.23,312.99c-1.85,0-3.49.29-4.9.82-1.44.53-2.65,1.37-3.61,2.45-1.4,1.67-1.59,3.83-1.84,6.56l-.06.77.05,12.83h4.27l.05-12.62c0-1.53.13-2.88.4-4.04.3-1.1.72-1.97,1.25-2.59.51-.63,1.2-1.1,2.05-1.38.71-.24,1.62-.35,2.67-.35h1.84v-2.48l-2.18.03ZM433.9,312.96v23.46h4.34v-21.16h8.09c3.11,0,5.67,2.54,5.67,5.65v15.51h4.42l.05-12.29c0-3.42-.81-5.88-2.62-8.02-.92-1.02-2.09-1.82-3.47-2.35-1.18-.43-2.56-.71-4.08-.76h-.15v-.04h-12.25ZM352.7,328.35s-.18-1.81-.18-3.66.19-3.66.19-3.67c0-3.16,2.59-5.76,5.78-5.76h8.26v11.24l-.05,1.85c0,3.11-2.75,5.77-6.01,5.77h-2.23c-3.18,0-5.77-2.59-5.77-5.78M358.14,312.92l-.13.03c-1.56.08-2.96.34-4.18.78-1.4.54-2.59,1.35-3.52,2.42-1.86,2.18-2.7,4.69-2.7,8.17l.16,2.96c.3,2.4,1.1,4.31,2.52,5.97.92,1.06,2.13,1.88,3.52,2.42.66.24,1.37.38,2.05.52,1.48.3,2.86.28,4.25.3.82,0,1.57.01,2.34-.16l.04-.03c.8-.16,1.59-.35,2.37-.63.65-.25,1.21-.59,1.65-.86l.24-.15v1.73h4.43v-23.46h-13.05ZM193.59,327.44c-.32-2.91-.49-8.12,1.76-10.52,1.04-1.13,2.53-1.77,4.06-1.77h1.76c4.52,0,5.58,4.57,5.83,6.51.16,1.52.42,4.47-.09,7.07-.25,1.32-.66,2.4-1.24,3.19-1.04,1.43-2.72,2.29-4.49,2.29h-1.77c-4.62,0-5.62-4.73-5.82-6.77M199.06,312.92h-.11c-1.49.09-2.85.34-3.99.76-1.35.52-2.48,1.3-3.38,2.31-1.8,2.09-2.59,4.53-2.59,7.85v1.67c0,3.34.8,5.76,2.59,7.84.89,1.02,2.02,1.8,3.38,2.31,1.15.43,2.49.68,3.99.75h2.71c1.49-.06,2.83-.32,3.97-.75,1.35-.52,2.51-1.29,3.39-2.31,1.78-2.09,2.58-4.5,2.58-7.84v-1.67c0-3.33-.8-5.76-2.58-7.85-.9-1.01-2.04-1.8-3.39-2.31-1.14-.42-2.48-.67-3.97-.75h-.16s-2.43-.01-2.43-.01ZM102.21,312.71c-1.46.54-2.37,1.16-3.3,2.23-1.89,2.15-1.89,5.43.01,7.64.95,1.06,2.15,1.9,3.54,2.43.95.34,2.01.59,3.16.71l.24.03c1.37.14,2.91.29,3.92,1.44,1.09,1.25,1.3,2.45.66,3.53-1.42,2.39-4.09,2.72-6.49,2.72h-4.85v3.02c.89.09,7,0,7.8-.09,3.27-.34,5.62-1.38,7.21-3.19,1.24-1.4,1.7-3.38,1.24-5.22-.23-.91-.66-1.72-1.25-2.4-.95-1.09-2.14-1.91-3.56-2.44-.78-.28-1.72-.42-2.75-.56-2.32-.3-4.92-.66-5.52-3.39-.38-1.8,1.24-3.24,2.92-3.79.62-.2,1.4-.3,2.33-.3h4.47v-2.9c-.78,0-1.57-.04-2.39-.08-.89-.04-1.77-.08-2.66-.08-1.65,0-3.27.14-4.75.7M119.64,306.04l-.06,20.21.08.75c.22,2.63.39,4.69,1.75,6.29.91,1.04,2.08,1.83,3.44,2.34,1.34.52,2.91.76,4.78.76h1.86v-2.25h-1.66c-.89,0-1.75-.14-2.53-.4-.81-.27-1.47-.72-1.96-1.32-.52-.58-.9-1.43-1.21-2.48-.25-1.13-.38-2.39-.38-3.87l-.03-10.07h6.86v-3.04h-6.87v-6.92h-4.06ZM378.29,306.04l-.06,20.21.08.76c.23,2.62.4,4.68,1.75,6.26.92,1.05,2.09,1.85,3.46,2.37,1.34.51,2.9.75,4.78.75h1.86v-2.25h-1.66c-.89-.01-1.73-.14-2.53-.4s-1.47-.71-1.97-1.32c-.51-.58-.9-1.42-1.2-2.48-.24-1.1-.38-2.4-.38-3.87l-.03-10.47h6.86v-2.63h-6.87l-.03-6.92h-4.05ZM29.48,305.7l-11.87,23.82h-.44l-.04-.08-12.05-23.74H0v30.69h4.27v-21.97l11.21,21.97h2.3l11.28-22.68.86-1.58v24.26h4.54v-30.69h-4.99ZM43.49,307.81v.71c0,1.18.95,2.13,2.13,2.13s2.11-.95,2.11-2.13v-.71c0-1.15-.96-2.11-2.11-2.11s-2.13.96-2.13,2.11M86.77,307.81v.71c0,1.18.96,2.13,2.13,2.13s2.13-.95,2.13-2.13v-.71c0-1.15-.96-2.11-2.13-2.11s-2.13.96-2.13,2.11M271.61,328.48v-7.58c0-3.11,2.53-5.64,5.66-5.64h8.11v18.87h-8.11c-3.13,0-5.66-2.54-5.66-5.65M285.38,305.7v7.27h-8.45l-.13.03c-1.54.06-2.91.32-4.08.76-1.37.53-2.54,1.33-3.46,2.37-1.82,2.14-2.63,4.6-2.63,7.99v1.16c0,4.36,1.4,6.56,2.63,7.99.91,1.05,2.08,1.85,3.46,2.35,1.18.46,2.54.71,4.08.77h.15v.03h12.76v-30.72h-4.33ZM395.57,307.81v.22c0,1.15.95,2.11,2.13,2.11s2.11-.96,2.11-2.11v-.22c0-1.15-.96-2.11-2.11-2.11s-2.13.96-2.13,2.11M242.92,305.69v30.7h20.69v-2.24h-16.38v-12.99h10.95v-2.35h-10.95v-10.5h16.38v-2.62h-20.69ZM226.03,305.66c-1.8,0-3.4.27-4.78.8-1.37.52-2.56,1.32-3.46,2.37-1.37,1.59-1.53,3.66-1.76,6.27l-.06.75.05,20.54h4.06l.03-14.52h6.86v-2.63h-6.85v-3.23c.01-1.44.13-2.73.4-3.86.29-1.04.7-1.87,1.19-2.47.51-.62,1.16-1.06,1.97-1.33.61-.2,1.37-.3,2.34-.32h.15v.03h2.16v-2.4h-2.32ZM48.16,271.5c0,2.16,1.76,3.9,3.9,3.9s3.9-1.73,3.9-3.9-1.76-3.88-3.9-3.88-3.9,1.75-3.9,3.88M59.4,271.5c0,2.16,1.76,3.9,3.9,3.9s3.9-1.73,3.9-3.9-1.75-3.88-3.9-3.88-3.9,1.75-3.9,3.88M314.73,244.64c0-4.83,3.92-8.75,8.75-8.75h17.69v17.49h-26.44v-8.74ZM322.87,230.05c-8.44,0-15.3,6.84-15.3,15.29v14.24h40.74v-29.54h-25.44ZM361.57,230.05l-.08,31.28c0,1.94-.16,3.66-.49,5.11-.4,1.37-.92,2.45-1.56,3.21-.62.76-1.47,1.32-2.48,1.64-.9.3-2.02.46-3.34.46h-.15l.33,3.88h.14c2.44,0,4.64-.38,6.56-1.09,1.89-.72,3.52-1.82,4.78-3.28,2.06-2.4,3.28-5.68,3.62-9.7l-.05-31.52h-7.28ZM399.16,230.05l-.06,31.28c0,1.94-.16,3.66-.51,5.11-.39,1.37-.91,2.44-1.56,3.21-.62.76-1.47,1.32-2.48,1.64-.89.3-2.01.46-3.34.46h-.15l.34,3.88h.13c2.44,0,4.64-.38,6.57-1.09,1.89-.72,3.51-1.82,4.78-3.28,2.05-2.4,3.27-5.67,3.62-9.7l-.06-31.52h-7.28ZM422.92,244.87c0-4.96,4.02-8.98,8.99-8.98h17.25v.24l-.05,17.25h-26.19v-8.51ZM431.3,230.05c-8.58,0-15.54,6.94-15.54,15.53v14h33.32v1.73c0,1.95-.15,3.67-.51,5.12-.39,1.37-.9,2.45-1.54,3.23-.62.75-1.46,1.3-2.48,1.63-.37.13-.81.2-1.25.29v3.97c1.75-.14,3.34-.48,4.78-1.01,1.91-.72,3.52-1.82,4.8-3.28,2.05-2.4,3.27-5.67,3.63-9.7l-.03-31.52h-25.19ZM12.38,236.36c0-.25.22-.47.46-.47h20.62s.54.01.54.01c.3.05.57.09.85.14,4.27.78,7.35,4.49,7.35,8.83v8.51H12.43l-.05-17.03ZM257.7,213.93v39.45h-17.79v-23.34h-7.13v23.34h-71.15v-8.29c0-5.07,4.14-9.21,9.23-9.21h30.36v-5.84h-30.98c-8.71,0-15.77,7.06-15.77,15.76v7.58h-57.48v-39.45h-7.04v39.45h-19.82v-23.34h-7.13v23.34h-13.47l-.05-7.11v-.1c0-5.01-1.58-8.98-4.68-11.79-2.77-2.62-6.7-4.09-11.68-4.34H4.95l.08,30.07c0,1.94-.18,3.64-.52,5.11-.37,1.37-.9,2.45-1.53,3.21-.63.76-1.47,1.3-2.48,1.64-.14.05-.33.06-.49.11v4.06c1.44-.15,2.8-.47,4.02-.92,1.9-.72,3.51-1.83,4.8-3.28,2.05-2.4,3.27-5.68,3.62-9.7v-.77h252.6v-45.65h-7.34ZM275.84,213.93c-.05,0-.1.06-.1.1v45.45c0,.05.05.09.1.09h6.92s.09-.04.09-.09v-45.45c0-.05-.05-.1-.09-.1h-6.92ZM380.01,259.57h7.11v-45.64h-7.11v45.64ZM399.01,217.83c0,2.14,1.75,3.9,3.89,3.9s3.9-1.76,3.9-3.9-1.76-3.9-3.9-3.9-3.89,1.75-3.89,3.9M223.77,217.83c0,2.13,1.75,3.88,3.9,3.88s3.89-1.76,3.89-3.88-1.75-3.91-3.89-3.91-3.9,1.76-3.9,3.91M235.02,217.83c0,2.13,1.75,3.88,3.9,3.88s3.87-1.76,3.87-3.88-1.73-3.91-3.87-3.91-3.9,1.76-3.9,3.91M320.05,217.83c0,2.13,1.76,3.88,3.9,3.88s3.89-1.76,3.89-3.88-1.73-3.91-3.89-3.91-3.9,1.76-3.9,3.91M331.3,217.83c0,2.13,1.76,3.88,3.9,3.88s3.9-1.76,3.9-3.88-1.76-3.91-3.9-3.91-3.9,1.76-3.9,3.91M225.66,145.59c-.05,1.71.7,3.39,1.96,4.63,1.19,1.21,2.87,1.97,4.58,1.92,1.73.05,3.44-.66,4.66-1.87,1.24-1.24,1.94-2.97,1.94-4.64,0-1.76-.7-3.47-1.89-4.69-1.27-1.24-2.92-1.88-4.71-1.88-3.43,0-6.54,3.11-6.54,6.54M141.88,121.57c-3.51,0-6.54,3.04-6.54,6.44,0,1.75.7,3.45,1.89,4.64,1.24,1.25,2.95,1.94,4.66,1.9,1.7.04,3.35-.68,4.56-1.9,1.25-1.24,1.94-2.86,1.94-4.59s-.73-3.42-1.94-4.6c-1.16-1.16-2.77-1.9-4.42-1.9-.05,0-.1,0-.14.01M316.5,127.1c-.04,1.69.7,3.35,1.91,4.55,1.18,1.19,2.85,1.92,4.59,1.92s3.35-.68,4.61-1.92c1.19-1.2,1.92-2.86,1.87-4.55.05-1.71-.63-3.42-1.87-4.64-1.21-1.21-2.92-1.91-4.64-1.91-3.42,0-6.47,3.05-6.47,6.55M201.84,112.18c-3.95.49-6.68,4.14-6.13,8.03.54,3.9,4.14,6.69,8.04,6.13,1.63-.22,3.05-.91,4.11-1.97,1.57-1.57,2.38-3.79,2.04-6.07-.47-3.6-3.54-6.2-7.04-6.2-.34,0-.68.03-1.03.08M254.98,117.27c-.56,3.91,2.16,7.55,6.14,8.04,2.28.35,4.49-.44,6.06-2.02,1.08-1.06,1.8-2.48,1.99-4.1.56-3.9-2.23-7.49-6.13-8.04-.35-.05-.7-.08-1.04-.08-3.49,0-6.56,2.61-7.02,6.2M98.3,104.28c-4.52,2.38-6.21,8.1-3.78,12.66,2.46,4.58,8.16,6.3,12.73,3.85.8-.39,1.53-1,2.13-1.59,2.91-2.91,3.66-7.35,1.66-11.07-1.7-3.16-4.94-4.96-8.29-4.96-1.51,0-3.02.35-4.44,1.11M353.88,107.05c-2.46,4.58-.72,10.3,3.83,12.72,3.73,2.01,8.18,1.26,11.09-1.64.59-.61,1.19-1.34,1.59-2.14,2.47-4.55.73-10.26-3.85-12.71-1.42-.76-2.95-1.13-4.45-1.13-3.34,0-6.57,1.78-8.21,4.9M52.92,94.65l-.05.06c-4.91,3.93-5.89,11.12-1.97,16.17,3.92,5.06,11.2,5.96,16.25,2.04.39-.23.73-.57,1.06-.89,4.08-4.09,4.57-10.63.89-15.28-2.28-2.93-5.71-4.48-9.16-4.48-2.46,0-4.94.78-7.01,2.38M16.38,91.6c-6.26-.1-12.29,5.76-12.2,12.19,0,3.09,1.29,6.27,3.52,8.5,2.33,2.33,5.51,3.62,8.68,3.53,3.18.09,6.28-1.3,8.52-3.53,2.32-2.33,3.7-5.41,3.61-8.6.09-3.16-1.29-6.25-3.61-8.56-2.16-2.18-5.14-3.54-8.21-3.54-.1,0-.2,0-.3.01M397.11,95.68l-.09.08c-3.83,4.98-2.94,12.26,2.13,16.17,4.66,3.68,11.2,3.19,15.28-.89.32-.33.66-.67.9-1.08,3.91-5.06,3.01-12.31-2.05-16.23-2.11-1.63-4.59-2.42-7.05-2.42-3.43,0-6.82,1.52-9.11,4.36M436.36,102.79c-.09,3.17,1.29,6.27,3.52,8.51,2.33,2.31,5.42,3.69,8.59,3.6,3.19.09,6.28-1.29,8.59-3.6,2.24-2.24,3.62-5.34,3.52-8.51.1-3.17-1.19-6.35-3.52-8.66-2.23-2.24-5.4-3.52-8.5-3.52-.05-.01-.1-.01-.14-.01-6.39,0-12.15,5.98-12.06,12.19M167.74,89.5c-4.57,1.29-7.24,6.02-5.9,10.65,1.28,4.54,6.02,7.21,10.58,5.95,1.46-.48,2.67-1.23,3.71-2.25,2.13-2.13,3.1-5.29,2.18-8.39-1.05-3.78-4.51-6.27-8.25-6.27-.77,0-1.54.1-2.32.32M286.55,94.46c-1.27,4.55,1.4,9.3,5.96,10.57,3.1.9,6.26-.06,8.39-2.2,1.04-1.02,1.77-2.24,2.25-3.69,1.27-4.57-1.4-9.32-5.96-10.57-.81-.23-1.63-.34-2.43-.34-3.76,0-7.16,2.47-8.21,6.24M232.19,86.05c-3.77,0-7.19,3.42-7.19,7.18-.05,1.91.71,3.79,2.08,5.17,1.34,1.33,3.18,2.04,5.11,2.04s3.78-.72,5.13-2.04c1.37-1.38,2.09-3.21,2.09-5.16s-.76-3.73-2.09-5.06c-1.34-1.33-3.13-2.15-4.97-2.15-.05,0-.1,0-.15.01M130.93,72.47c-4.71,2.05-6.9,7.54-4.91,12.33,2.13,4.77,7.68,6.89,12.4,4.83,1.13-.47,2.06-1.13,2.91-2,2.59-2.59,3.53-6.68,2.01-10.35-1.58-3.53-5.05-5.6-8.67-5.6-1.25,0-2.53.25-3.75.78M321.62,76.29c-2.05,4.71.08,10.28,4.85,12.4,3.64,1.53,7.77.59,10.34-1.99.86-.86,1.53-1.78,2-2.91,2.05-4.71-.08-10.27-4.85-12.41-1.2-.49-2.44-.73-3.67-.73-3.66,0-7.13,2.11-8.67,5.64M199.35,63.31c-4.16.99-6.75,5.1-5.81,9.32,1.04,4.11,5.2,6.75,9.38,5.77,1.43-.34,2.75-1.11,3.68-2.02,1.86-1.88,2.73-4.62,2.14-7.3-.85-3.58-4.06-5.98-7.58-5.98-.59,0-1.2.08-1.81.22M256.22,68.04c-1,4.17,1.59,8.4,5.75,9.37,2.7.61,5.43-.27,7.3-2.13.94-.95,1.7-2.25,2.04-3.68.97-4.17-1.66-8.34-5.76-9.37-.59-.14-1.18-.19-1.75-.19-3.57,0-6.75,2.4-7.58,6M91.35,59.74c-5.18,3.25-6.85,10.17-3.66,15.42,3.27,5.35,10.19,7.02,15.52,3.76.81-.49,1.52-1.05,2.08-1.59,3.66-3.67,4.45-9.39,1.67-13.93-2.19-3.43-5.9-5.33-9.69-5.33-2.01,0-4.06.53-5.91,1.67M357.98,62.34c-3.27,5.33-1.59,12.24,3.66,15.6,4.53,2.78,10.26,2,13.93-1.68.54-.54,1.1-1.25,1.59-2.05,3.25-5.34,1.59-12.26-3.75-15.52-1.82-1.1-3.82-1.62-5.81-1.62-3.78,0-7.49,1.88-9.63,5.27M49.89,53.43c-5.18,4.3-5.94,11.95-1.65,17.11,4.21,5.22,11.87,6,17.04,1.71l.08.09c.34-.35.61-.61.86-.87,4.39-4.38,4.81-11.5.86-16.32-2.43-2.92-5.95-4.43-9.48-4.43-2.71,0-5.43.89-7.71,2.71M396.76,54.08c-4.19,5.24-3.43,12.88,1.73,17.19,4.81,3.96,11.93,3.5,16.33-.86.24-.27.52-.52.86-.87l-.09-.08c4.3-5.15,3.52-12.79-1.71-17.01-2.25-1.87-4.99-2.78-7.69-2.78-3.51,0-7,1.52-9.43,4.41M4.18,61.77c0,3.43,1.44,6.96,4,9.54,2.48,2.48,6.04,3.92,9.57,3.82,3.52.09,7.06-1.34,9.54-3.82,2.58-2.58,3.91-6.01,3.92-9.63-.01-3.64-1.44-6.98-3.92-9.46-2.58-2.58-5.92-4.01-9.54-4.01h-.16c-7.11,0-13.4,6.54-13.4,13.56M433.66,60.77c0,3.62,1.43,6.94,4.01,9.54,2.47,2.48,5.82,3.9,9.45,3.91,3.63-.01,7.06-1.34,9.64-3.91,2.48-2.48,3.91-6.01,3.81-9.54.1-3.53-1.33-7.08-3.81-9.55-2.58-2.58-6.11-4.01-9.54-4.01-7.09,0-13.67,6.39-13.57,13.56M164.45,42.58c-4.73,1.77-7.2,7.08-5.44,11.83,1.68,4.67,6.94,7.17,11.67,5.44l.08.06c1.28-.52,2.39-1.24,3.3-2.15,2.47-2.45,3.35-6.21,2.14-9.65-1.32-3.76-4.86-6.08-8.61-6.08-1.05,0-2.1.18-3.14.56M288.64,47.07c-1.76,4.73.72,10.06,5.52,11.74,3.44,1.21,7.2.32,9.66-2.14.91-.91,1.62-2.02,2.15-3.3l-.08-.08c1.76-4.73-.77-9.98-5.44-11.66-1.04-.39-2.1-.57-3.15-.57-3.75,0-7.29,2.31-8.66,6.01M126.84,26.54c-5.9,3.04-8.26,10.12-5.32,16.1,2.96,5.83,10.21,8.2,16.04,5.25,1.16-.68,2.19-1.37,3.04-2.2,3.54-3.55,4.63-9.2,2.18-13.83-2.02-4.19-6.25-6.59-10.62-6.59-1.8,0-3.62.42-5.32,1.26M322.02,30.92c-2.95,5.81-.58,13.05,5.3,15.91,4.64,2.45,10.3,1.35,13.85-2.19.84-.83,1.52-1.86,2.19-3.02,2.96-5.82.58-13.07-5.24-16.03-1.75-.86-3.59-1.26-5.39-1.26-4.38,0-8.57,2.4-10.71,6.59M87.63,15.88c-6.42,4.26-8.19,12.9-3.95,19.33,4.43,6.41,13.02,8.1,19.44,3.85.8-.38,1.48-1.06,2.06-1.67,4.64-4.63,5.63-11.93,1.78-17.56-2.68-4.05-7.14-6.25-11.67-6.25-2.65,0-5.32.75-7.67,2.3M357.92,18.78c-4.24,6.41-2.46,15.1,3.96,19.34,5.62,3.83,12.92,2.85,17.57-1.78.58-.59,1.28-1.28,1.67-2.07,4.24-6.4,2.56-14.98-3.85-19.43-2.37-1.56-5.02-2.3-7.67-2.3-4.53,0-9,2.2-11.68,6.25M48.64,10.51c-5.92,4.93-6.62,13.71-1.68,19.62,5.02,5.82,13.81,6.5,19.73,1.59l.8-.8c5.14-5.12,5.51-13.22.8-18.94-2.78-3.2-6.68-4.86-10.59-4.86-3.21,0-6.43,1.11-9.05,3.38M396.67,10.53c-5.02,5.83-4.34,14.6,1.48,19.63,5.71,4.73,13.8,4.34,18.95-.8.29-.29.49-.48.78-.78,4.91-5.91,4.24-14.7-1.57-19.72-2.65-2.2-5.86-3.28-9.04-3.28-3.96,0-7.87,1.67-10.61,4.95M19.48,0C11.56-.11,4.16,7.27,4.18,15.29c-.11,4.01,1.51,8.02,4.44,10.95,2.82,2.82,6.85,4.45,10.97,4.45,3.91,0,7.92-1.63,10.75-4.45,2.92-2.92,4.56-6.94,4.45-10.95.09-4.02-1.65-7.92-4.45-10.74C27.49,1.7,23.74,0,19.86,0h-.38M445.18,0c-8.02-.01-15.42,7.37-15.3,15.29-.11,4.02,1.62,7.91,4.56,10.85,2.82,2.81,6.73,4.54,10.75,4.45,4.01.1,8.04-1.53,10.96-4.45,2.83-2.82,4.44-6.83,4.44-10.74,0-4.12-1.61-8.15-4.44-10.97C453.3,1.61,449.44,0,445.57,0h-.39"/>
    </clipPath>
    <linearGradient id="linear-gradient" x1="-1370.53" y1="730.48" x2="-1357.87" y2="730.48" gradientTransform="translate(49877.95 26759.28) scale(36.39 -36.39)" gradientUnits="userSpaceOnUse">
      <stop offset="0" stop-color="#3b83b7"/>
      <stop offset=".32" stop-color="#3f8fa5"/>
      <stop offset=".97" stop-color="#4baf78"/>
      <stop offset="1" stop-color="#4cb176"/>
    </linearGradient>
  </defs>
  <g id="Layer_1-2" data-name="Layer 1">
    <g class="cls-3">
      <rect class="cls-2" y="-.11" width="460.68" height="349.98"/>
    </g>
  </g>
</svg>